<svg xmlns="http://www.w3.org/2000/svg" width="1200" height="500" viewBox="0 0 1200 500"><rect width="1200" height="500" fill="#e8ecdf"/><circle cx="1070" cy="70" r="220" fill="#f4eed5"/><rect x="815" y="45" width="240" height="300" rx="115" fill="#bccfbe"/><rect x="835" y="65" width="200" height="260" rx="95" fill="#f8f6de"/><path d="M935 65v260M835 190h200" stroke="#b5c5af" stroke-width="9"/><path d="M700 376h480v124H700z" fill="#c5b89c"/><ellipse cx="925" cy="399" rx="195" ry="24" fill="#a99d83" opacity=".3"/><path d="M759 339q72-30 142 2v88q-75-32-142-8z" fill="#fffdf1" stroke="#738870" stroke-width="3"/><path d="M901 341q71-32 143-2v82q-71-8-143 8z" fill="#fffdf1" stroke="#738870" stroke-width="3"/><path d="M901 343v83M779 361l100 5m-100 13l100 5m-100 13l100 5m40-36l103-5m-103 23l103-5m-103 23l103-5" stroke="#c6cbb6" stroke-width="3"/><rect x="1080" y="335" width="57" height="51" rx="12" fill="#f6f0df"/><path d="M1135 344q30 0 20 23q-7 9-20 4" fill="none" stroke="#f6f0df" stroke-width="9"/><path d="M1094 322q-14-17 0-33m20 33q-14-17 0-33" fill="none" stroke="#a0ac98" stroke-width="3"/><path d="M714 376l-12-70h67l-12 70z" fill="#bb795f"/><path d="M735 308v-94m0 58q-55-1-46-49q48 4 46 49m0-20q50 0 44-45q-42 3-44 45m0-18q-32-3-25-36q30 4 25 36" fill="#648569" stroke="#648569" stroke-width="4"/></svg>